<svg width="2156" height="208" viewBox="0 0 2156 208" fill="none" xmlns="http://www.w3.org/2000/svg">
<path d="M46.592 205H0.512002V3.39999H35.648C60.992 3.39999 80.096 8.10399 92.96 17.512C105.824 26.728 112.256 39.784 112.256 56.68C112.256 75.88 104.192 89.992 88.064 99.016C111.488 107.848 123.2 124.456 123.2 148.84C123.2 166.12 116.864 179.848 104.192 190.024C91.52 200.008 72.32 205 46.592 205ZM46.592 196.36C55.616 196.36 63.872 195.688 71.36 194.344C78.848 192.808 85.952 190.408 92.672 187.144C99.584 183.688 104.96 178.696 108.8 172.168C112.64 165.64 114.56 157.864 114.56 148.84C114.56 128.296 104.672 114.376 84.896 107.08L67.616 100.744L83.744 91.528C96.992 84.232 103.616 72.616 103.616 56.68C103.616 26.92 80.96 12.04 35.648 12.04H9.152V196.36H46.592ZM188.605 3.39999H298.909V118.312C298.909 149.032 293.629 171.688 283.069 186.28C272.509 200.68 255.421 207.88 231.805 207.88C208.189 207.88 191.101 200.68 180.541 186.28C169.981 171.688 164.701 149.032 164.701 118.312V3.39999H173.341V118.312C173.341 134.248 174.685 147.688 177.373 158.632C180.061 169.384 184.093 177.64 189.469 183.4C194.845 189.16 200.893 193.288 207.613 195.784C214.333 198.088 222.397 199.24 231.805 199.24C241.213 199.24 249.277 198.088 255.997 195.784C262.717 193.288 268.765 189.16 274.141 183.4C279.517 177.64 283.549 169.384 286.237 158.632C288.925 147.688 290.269 134.248 290.269 118.312V12.04H188.605V3.39999ZM375.945 196.36H465.225L362.121 18.088V205H353.481V3.39999H363.561L471.273 189.736V3.39999H479.913V205H375.945V196.36ZM742.177 196.36V205H621.793V3.39999H630.433V196.36H742.177ZM783.715 205H775.075V3.39999H783.715V205ZM886.686 205H840.606V3.39999H875.742C901.086 3.39999 920.19 8.10399 933.054 17.512C945.918 26.728 952.35 39.784 952.35 56.68C952.35 75.88 944.286 89.992 928.158 99.016C951.582 107.848 963.294 124.456 963.294 148.84C963.294 166.12 956.958 179.848 944.286 190.024C931.614 200.008 912.414 205 886.686 205ZM886.686 196.36C895.71 196.36 903.966 195.688 911.454 194.344C918.942 192.808 926.046 190.408 932.766 187.144C939.678 183.688 945.054 178.696 948.894 172.168C952.734 165.64 954.654 157.864 954.654 148.84C954.654 128.296 944.766 114.376 924.99 107.08L907.71 100.744L923.838 91.528C937.086 84.232 943.71 72.616 943.71 56.68C943.71 26.92 921.054 12.04 875.742 12.04H849.246V196.36H886.686ZM1086.28 53.224C1086.28 34.6 1090.98 21.16 1100.39 12.904C1109.8 4.64799 1125.06 0.519989 1146.18 0.519989C1160.96 0.519989 1172.87 4.35999 1181.89 12.04C1190.92 19.72 1197.44 31.432 1201.48 47.176L1174.69 67.336H1160.58L1191.68 44.008C1187.65 31.144 1181.8 22.12 1174.12 16.936C1166.63 11.752 1157.32 9.16 1146.18 9.16C1138.5 9.16 1131.97 9.64 1126.6 10.6C1121.41 11.56 1116.13 13.48 1110.76 16.36C1105.57 19.048 1101.64 23.464 1098.95 29.608C1096.26 35.752 1094.92 43.624 1094.92 53.224C1094.92 61.672 1098.76 69.16 1106.44 75.688C1114.31 82.216 1123.81 87.784 1134.95 92.392C1146.08 97 1157.22 101.704 1168.36 106.504C1179.68 111.304 1189.19 117.448 1196.87 124.936C1204.74 132.424 1208.68 141.064 1208.68 150.856C1208.68 170.056 1203.88 184.36 1194.28 193.768C1184.87 203.176 1168.64 207.88 1145.6 207.88C1126.79 207.88 1112 204.136 1101.25 196.648C1090.5 188.968 1083.11 177.16 1079.08 161.224L1087.14 157.768C1090.98 173.32 1097.51 184.168 1106.72 190.312C1116.13 196.264 1129.09 199.24 1145.6 199.24C1164.04 199.24 1177.67 195.688 1186.5 188.584C1195.52 181.48 1200.04 168.904 1200.04 150.856C1200.04 142.408 1196.1 134.92 1188.23 128.392C1180.55 121.864 1171.04 116.296 1159.72 111.688C1148.58 107.08 1137.44 102.376 1126.31 97.576C1115.17 92.776 1105.67 86.632 1097.8 79.144C1090.12 71.656 1086.28 63.016 1086.28 53.224ZM1373.57 3.39999V12.04H1305.89V205H1297.25V12.04H1229.57V3.39999H1373.57ZM1411.66 196.36H1517.65L1456.59 28.456L1392.37 205H1383.15L1456.59 3.11199L1530.03 205H1411.66V196.36ZM1586.16 196.36H1665.65L1630.8 100.744L1646.93 91.528C1660.18 84.232 1666.8 72.616 1666.8 56.68C1666.8 26.92 1644.15 12.04 1598.84 12.04H1572.34V205H1563.7V3.39999H1598.84C1624.18 3.39999 1643.28 8.10399 1656.15 17.512C1669.01 26.728 1675.44 39.784 1675.44 56.68C1675.44 75.88 1667.38 89.992 1651.25 99.016L1641.46 104.488L1678.04 205H1586.16V196.36ZM1841.85 3.39999V12.04H1774.17V205H1765.53V12.04H1697.85V3.39999H1841.85ZM1978.15 99.592H1892.62L1980.75 12.04H1883.4V196.36H1995.15V205H1874.76V3.39999H2001.77L1913.64 90.952H1978.15V99.592ZM2063.16 196.36H2142.65L2107.8 100.744L2123.93 91.528C2137.18 84.232 2143.8 72.616 2143.8 56.68C2143.8 26.92 2121.15 12.04 2075.84 12.04H2049.34V205H2040.7V3.39999H2075.84C2101.18 3.39999 2120.28 8.10399 2133.15 17.512C2146.01 26.728 2152.44 39.784 2152.44 56.68C2152.44 75.88 2144.38 89.992 2128.25 99.016L2118.46 104.488L2155.04 205H2063.16V196.36Z" fill="url(#paint0_linear_27_2)"/>
<defs>
<linearGradient id="paint0_linear_27_2" x1="-28" y1="104.714" x2="2171" y2="104.714" gradientUnits="userSpaceOnUse">
<stop stop-color="#FFC517"/>
<stop offset="1" stop-color="#42B883"/>
</linearGradient>
</defs>
</svg>
